<svg xmlns="http://www.w3.org/2000/svg" width="22.573" height="22.574" viewBox="0 0 22.573 22.574">
  <g id="chat" transform="translate(0.679 -1.467)">
    <g id="rectangular-outlined-speech-bubble-symbol" transform="translate(-0.689 1.467)">
      <g id="_x36__18_" transform="translate(0.01)">
        <g id="Group_1415" data-name="Group 1415">
          <path id="Path_466" data-name="Path 466" d="M18.822,0H3.772A3.749,3.749,0,0,0,.01,3.737V15.651a3.278,3.278,0,0,0,3.527,3.4H8.22L11.3,22.574l3.077-3.528h4.683a3.278,3.278,0,0,0,3.527-3.4V3.737A3.749,3.749,0,0,0,18.822,0Zm2.351,15.519a2.313,2.313,0,0,1-2.116,2.116H13.413L11.3,20.457,9.18,17.636H3.537a2.313,2.313,0,0,1-2.116-2.116V3.527A2.314,2.314,0,0,1,3.537,1.411H19.056a2.313,2.313,0,0,1,2.116,2.116Z" transform="translate(-0.01)"/>
        </g>
      </g>
    </g>
  </g>
</svg>
