<svg xmlns="http://www.w3.org/2000/svg" width="22.573" height="22.574" viewBox="0 0 22.573 22.574">
  <g id="explore" transform="translate(0.179 -1.467)">
    <g id="zoom-increasing-symbol" transform="translate(515.814 178.467)">
      <g id="_x35__33_" transform="translate(-515.993 -177)">
        <g id="Group_1418" data-name="Group 1418" transform="translate(0 0)">
          <path id="Path_469" data-name="Path 469" d="M22.366,21.346l-5.828-5.735A9.219,9.219,0,0,0,19,9.346,9.423,9.423,0,0,0,9.5,0a9.423,9.423,0,0,0-9.5,9.346,9.423,9.423,0,0,0,9.5,9.346,9.551,9.551,0,0,0,5.978-2.087l5.851,5.758a.739.739,0,0,0,1.033,0A.711.711,0,0,0,22.366,21.346ZM9.5,17.255A7.973,7.973,0,0,1,1.468,9.346,7.973,7.973,0,0,1,9.5,1.438a7.973,7.973,0,0,1,8.036,7.908A7.973,7.973,0,0,1,9.5,17.255Z" transform="translate(-0.007)"/>
        </g>
      </g>
    </g>
  </g>
</svg>
