<svg xmlns="http://www.w3.org/2000/svg" width="22.895" height="24.569" viewBox="0 0 22.895 24.569">
  <g id="user" transform="translate(-200.321 0.937)">
    <g id="_037-user" data-name="037-user" transform="translate(200.321 -0.937)">
      <g id="Group_255" data-name="Group 255" transform="translate(0 13.838)">
        <g id="Group_254" data-name="Group 254">
          <path id="Path_109" data-name="Path 109" d="M28.887,288.389c-7.382,0-11.447,3.492-11.447,9.833a.9.9,0,0,0,.9.9h21.1a.9.9,0,0,0,.9-.9C40.335,291.882,36.269,288.389,28.887,288.389Zm-9.621,8.937c.353-4.741,3.585-7.143,9.621-7.143s9.269,2.4,9.622,7.143Z" transform="translate(-17.44 -288.389)"/>
        </g>
      </g>
      <g id="Group_257" data-name="Group 257" transform="translate(5.5)">
        <g id="Group_256" data-name="Group 256">
          <path id="Path_110" data-name="Path 110" d="M138,0a5.877,5.877,0,0,0-5.948,6.067,5.968,5.968,0,1,0,11.9,0A5.877,5.877,0,0,0,138,0Zm0,10.73a4.436,4.436,0,0,1-4.155-4.663A4.077,4.077,0,0,1,138,1.793a4.123,4.123,0,0,1,4.155,4.274A4.436,4.436,0,0,1,138,10.73Z" transform="translate(-132.049)"/>
        </g>
      </g>
    </g>
  </g>
</svg>
